<?xml version="1.0" standalone="no"?>
<!DOCTYPE svg PUBLIC "-//W3C//DTD SVG 20010904//EN"
 "http://www.w3.org/TR/2001/REC-SVG-20010904/DTD/svg10.dtd">
<svg version="1.0" xmlns="http://www.w3.org/2000/svg"
 width="598.000000pt" height="598.000000pt" viewBox="0 0 598.000000 598.000000"
 preserveAspectRatio="xMidYMid meet">
<metadata>
Created by potrace 1.14, written by Peter Selinger 2001-2017
</metadata>
<g transform="translate(0.000000,598.000000) scale(0.100000,-0.100000)"
fill="#000000" stroke="none">
<path d="M2920 4710 c-92 -17 -169 -71 -217 -152 -80 -133 -82 -287 -7 -642
14 -67 27 -128 29 -136 61 -271 137 -654 151 -760 7 -58 33 -83 74 -69 38 14
39 17 55 178 8 86 24 178 51 296 30 131 19 86 100 390 121 451 136 553 98 669
-55 173 -177 255 -334 226z"/>
<path d="M1450 4471 c-119 -39 -192 -136 -194 -257 -2 -118 78 -235 284 -418
30 -26 80 -71 110 -100 30 -28 100 -91 155 -141 55 -49 107 -97 115 -105 50
-51 352 -307 485 -412 187 -147 254 -176 289 -126 23 33 20 48 -27 140 -73
139 -472 780 -641 1028 -28 41 -54 82 -58 90 -4 8 -34 49 -66 90 -72 92 -155
160 -230 190 -61 24 -179 35 -222 21z"/>
<path d="M4555 4405 c-172 -48 -400 -219 -601 -452 -33 -37 -64 -72 -70 -78
-6 -5 -67 -75 -135 -155 -165 -193 -279 -321 -413 -463 -98 -105 -153 -184
-155 -224 -1 -6 11 -26 26 -43 23 -28 31 -32 64 -27 69 9 178 71 479 274 274
184 447 307 726 514 195 146 292 239 334 323 27 52 29 66 26 135 -5 105 -35
169 -93 199 -29 16 -125 14 -188 -3z"/>
<path d="M530 3889 c-128 -33 -184 -99 -182 -217 1 -85 35 -157 110 -232 154
-154 363 -244 1267 -550 143 -48 321 -108 395 -133 237 -81 296 -91 330 -57
40 40 16 86 -80 150 -19 13 -37 27 -40 30 -3 3 -23 17 -45 30 -22 13 -44 28
-50 33 -5 4 -92 65 -193 135 -100 70 -284 199 -409 287 -125 88 -232 162 -237
164 -6 2 -13 7 -16 10 -11 15 -249 166 -359 229 -228 131 -341 159 -491 121z"/>
<path d="M5260 3830 c-200 -42 -308 -93 -995 -465 -693 -375 -769 -419 -826
-481 -51 -55 -40 -100 28 -122 68 -23 159 -6 673 120 157 38 292 71 300 73 49
10 633 161 725 187 248 68 403 174 483 330 36 71 42 200 12 259 -21 41 -67 81
-115 99 -50 20 -191 20 -285 0z"/>
<path d="M2923 2749 c-145 -27 -272 -171 -288 -328 -10 -94 49 -207 167 -324
44 -43 81 -85 82 -95 2 -9 7 -71 11 -137 3 -66 8 -149 10 -185 2 -36 7 -117
10 -180 7 -140 20 -212 44 -242 16 -19 22 -21 44 -11 14 7 33 26 42 43 16 30
17 54 30 450 5 161 7 186 26 258 11 38 21 49 93 97 110 74 143 106 168 162 27
59 29 166 5 238 -58 173 -258 288 -444 254z"/>
</g>
</svg>
